<?xml version="1.0" standalone="no"?>
<!DOCTYPE svg PUBLIC "-//W3C//DTD SVG 20010904//EN"
 "http://www.w3.org/TR/2001/REC-SVG-20010904/DTD/svg10.dtd">
<svg version="1.0" xmlns="http://www.w3.org/2000/svg"
 width="382.000000pt" height="382.000000pt" viewBox="0 0 382.000000 382.000000"
 preserveAspectRatio="xMidYMid meet">
<metadata>
Created by potrace 1.16, written by Peter Selinger 2001-2019
</metadata>
<g transform="translate(0.000000,382.000000) scale(0.100000,-0.100000)"
fill="#000000" stroke="none">
<path d="M674 3683 c-65 -53 -194 -159 -286 -236 l-168 -139 0 -485 c0 -387 3
-484 13 -476 6 5 45 35 85 67 l72 57 0 370 c-1 203 2 374 5 380 4 5 84 72 178
148 95 76 197 159 228 185 l56 46 169 0 c93 0 206 3 252 7 l82 6 0 83 0 84
-283 0 -283 0 -120 -97z"/>
<path d="M2480 3690 l0 -90 243 0 244 0 60 -47 c33 -27 144 -115 246 -196
l187 -148 1 -367 0 -367 80 -53 79 -52 0 468 0 469 -157 129 c-87 70 -218 177
-290 236 l-133 108 -280 0 -280 0 0 -90z"/>
<path d="M1990 3206 l0 -445 196 -158 c108 -87 278 -222 378 -301 99 -78 192
-153 204 -166 l24 -23 -114 -96 c-62 -52 -210 -175 -328 -273 -118 -97 -248
-206 -287 -241 l-73 -65 0 -449 c0 -247 3 -449 7 -449 15 0 973 785 1349 1105
l24 21 0 414 c0 228 -3 431 -6 450 -4 26 -15 42 -41 58 -31 21 -568 451 -1076
861 -109 88 -211 170 -227 181 l-30 21 0 -445z"/>
<path d="M1649 3502 c-80 -64 -258 -210 -395 -324 -137 -113 -368 -305 -514
-425 l-265 -219 -3 -325 c-2 -178 -1 -373 3 -434 l8 -110 126 -100 c69 -55
232 -188 361 -296 703 -585 830 -689 845 -689 4 0 5 200 3 445 -5 342 -9 449
-19 461 -11 14 -72 63 -489 393 -242 191 -270 214 -270 222 0 3 87 77 193 162
105 85 278 224 382 309 l190 153 3 448 c1 246 -1 447 -5 447 -5 0 -74 -53
-154 -118z"/>
<path d="M220 1419 c0 -261 4 -479 8 -484 12 -18 608 -514 888 -741 l192 -154
625 0 626 0 78 62 c166 131 887 732 953 794 l35 33 -3 476 -2 476 -48 -37
c-26 -21 -62 -51 -79 -68 l-33 -30 0 -362 0 -362 -467 -389 c-258 -214 -479
-397 -493 -406 -22 -15 -73 -17 -550 -17 -289 0 -541 4 -561 9 -36 8 -100 60
-786 629 l-213 176 0 237 c0 130 -3 297 -7 373 l-6 137 -51 36 c-28 20 -63 48
-78 62 l-28 25 0 -475z"/>
</g>
</svg>
